<svg id="visual" viewBox="0 0 960 540" width="960" height="540" xmlns="http://www.w3.org/2000/svg" xmlns:xlink="http://www.w3.org/1999/xlink" version="1.1"><rect x="0" y="0" width="960" height="540" fill="#001220"></rect><path d="M0 315L22.8 315.3C45.7 315.7 91.3 316.3 137 330.3C182.7 344.3 228.3 371.7 274 379C319.7 386.3 365.3 373.7 411.2 370.5C457 367.3 503 373.7 548.8 367.7C594.7 361.7 640.3 343.3 686 342.3C731.7 341.3 777.3 357.7 823 357.3C868.7 357 914.3 340 937.2 331.5L960 323L960 541L937.2 541C914.3 541 868.7 541 823 541C777.3 541 731.7 541 686 541C640.3 541 594.7 541 548.8 541C503 541 457 541 411.2 541C365.3 541 319.7 541 274 541C228.3 541 182.7 541 137 541C91.3 541 45.7 541 22.8 541L0 541Z" fill="#69abfa"></path><path d="M0 363L22.8 371.3C45.7 379.7 91.3 396.3 137 406.3C182.7 416.3 228.3 419.7 274 417.2C319.7 414.7 365.3 406.3 411.2 402.5C457 398.7 503 399.3 548.8 402.3C594.7 405.3 640.3 410.7 686 406.3C731.7 402 777.3 388 823 388.2C868.7 388.3 914.3 402.7 937.2 409.8L960 417L960 541L937.2 541C914.3 541 868.7 541 823 541C777.3 541 731.7 541 686 541C640.3 541 594.7 541 548.8 541C503 541 457 541 411.2 541C365.3 541 319.7 541 274 541C228.3 541 182.7 541 137 541C91.3 541 45.7 541 22.8 541L0 541Z" fill="#418df3"></path><path d="M0 458L22.8 456C45.7 454 91.3 450 137 442.2C182.7 434.3 228.3 422.7 274 423.7C319.7 424.7 365.3 438.3 411.2 437.3C457 436.3 503 420.7 548.8 417.3C594.7 414 640.3 423 686 431.8C731.7 440.7 777.3 449.3 823 453.3C868.7 457.3 914.3 456.7 937.2 456.3L960 456L960 541L937.2 541C914.3 541 868.7 541 823 541C777.3 541 731.7 541 686 541C640.3 541 594.7 541 548.8 541C503 541 457 541 411.2 541C365.3 541 319.7 541 274 541C228.3 541 182.7 541 137 541C91.3 541 45.7 541 22.8 541L0 541Z" fill="#1d6ee9"></path><path d="M0 488L22.8 482.7C45.7 477.3 91.3 466.7 137 459.8C182.7 453 228.3 450 274 449.7C319.7 449.3 365.3 451.7 411.2 453.7C457 455.7 503 457.3 548.8 462.8C594.7 468.3 640.3 477.7 686 477.2C731.7 476.7 777.3 466.3 823 457.8C868.7 449.3 914.3 442.7 937.2 439.3L960 436L960 541L937.2 541C914.3 541 868.7 541 823 541C777.3 541 731.7 541 686 541C640.3 541 594.7 541 548.8 541C503 541 457 541 411.2 541C365.3 541 319.7 541 274 541C228.3 541 182.7 541 137 541C91.3 541 45.7 541 22.8 541L0 541Z" fill="#0e4ddb"></path><path d="M0 483L22.8 487.2C45.7 491.3 91.3 499.7 137 501.7C182.7 503.7 228.3 499.3 274 500C319.7 500.7 365.3 506.3 411.2 503.8C457 501.3 503 490.7 548.8 484.2C594.7 477.7 640.3 475.3 686 480.2C731.7 485 777.3 497 823 498C868.7 499 914.3 489 937.2 484L960 479L960 541L937.2 541C914.3 541 868.7 541 823 541C777.3 541 731.7 541 686 541C640.3 541 594.7 541 548.8 541C503 541 457 541 411.2 541C365.3 541 319.7 541 274 541C228.3 541 182.7 541 137 541C91.3 541 45.7 541 22.8 541L0 541Z" fill="#2424c7"></path></svg>